# xmcd
#
# Track frame offsets:
#	150
#	11507
#	26660
#	45305
#	57572
#	78155
#	92280
#	108935
#	124872
#	145627
#	175307
#
# Disc length: 2385 seconds
#
# Revision: 1
# Processed by: cddbd v1.5.2PL0 Copyright (c) Steve Scherf et al.
# Submitted via: audiograbber 1.83.01
#
DISCID=7e094f0b
DTITLE=Welldiggers Banquet - Welldiggers Banquet
DYEAR=2007
DGENRE=Country Rock
TTITLE0=Intro
TTITLE1=White River
TTITLE2=Mystic
TTITLE3=Broken Records
TTITLE4=Feelin' Blue
TTITLE5=Frio
TTITLE6=Kansas City Girl
TTITLE7=Tonight
TTITLE8=Charms Of The City
TTITLE9=Tri-County Radio
TTITLE10=White River (Reprise)
EXTD=
EXTT0=
EXTT1=
EXTT2=
EXTT3=
EXTT4=
EXTT5=
EXTT6=
EXTT7=
EXTT8=
EXTT9=
EXTT10=
PLAYORDER=
